<?xml version="1.0" standalone="no"?>
<!DOCTYPE svg PUBLIC "-//W3C//DTD SVG 1.1//EN" "http://www.w3.org/Graphics/SVG/1.1/DTD/svg11.dtd" >
<!--
2013-9-30: Created.
-->
<svg>
<metadata>
Created by iconfont
</metadata>
<defs>

<font id="iconfont" horiz-adv-x="1024" >
  <font-face
    font-family="iconfont"
    font-weight="500"
    font-stretch="normal"
    units-per-em="1024"
    ascent="896"
    descent="-128"
  />
    <missing-glyph />
    
    <glyph glyph-name="x" unicode="x" horiz-adv-x="1001"
d="M281 543q-27 -1 -53 -1h-83q-18 0 -36.5 -6t-32.5 -18.5t-23 -32t-9 -45.5v-76h912v41q0 16 -0.5 30t-0.5 18q0 13 -5 29t-17 29.5t-31.5 22.5t-49.5 9h-133v-97h-438v97zM955 310v-52q0 -23 0.5 -52t0.5 -58t-10.5 -47.5t-26 -30t-33 -16t-31.5 -4.5q-14 -1 -29.5 -0.5
t-29.5 0.5h-32l-45 128h-439l-44 -128h-29h-34q-20 0 -45 1q-25 0 -41 9.5t-25.5 23t-13.5 29.5t-4 30v167h911zM163 247q-12 0 -21 -8.5t-9 -21.5t9 -21.5t21 -8.5q13 0 22 8.5t9 21.5t-9 21.5t-22 8.5zM316 123q-8 -26 -14 -48q-5 -19 -10.5 -37t-7.5 -25t-3 -15t1 -14.5
t9.5 -10.5t21.5 -4h37h67h81h80h64h36q23 0 34 12t2 38q-5 13 -9.5 30.5t-9.5 34.5q-5 19 -11 39h-368zM336 498v228q0 11 2.5 23t10 21.5t20.5 15.5t34 6h188q31 0 51.5 -14.5t20.5 -52.5v-227h-327z" />
    

    
    <glyph glyph-name="ziliao" unicode="&#58893;" d="M510.139118 747.261557c-246.820432 0-446.907493-200.088084-446.907493-446.907493 0-246.822478 200.088084-446.909539 446.907493-446.909539 246.820432 0 446.910563 200.087061 446.910563 446.909539C957.050704 547.173472 756.960573 747.261557 510.139118 747.261557zM758.31236 134.517061c-1.889023-21.083178-16.47523-36.566824-37.670971-39.460734-6.374174-0.87595-12.891611-0.89744-19.336394-0.907673-130.754996-0.052189-261.522272-0.104377-392.275221 0.102331-9.30697 0.021489-19.192108 0.353041-27.828812 3.347235-31.837102 11.031241-40.866756 58.446134-15.619746 87.09973 9.390881 10.661827 22.395056 19.586081 35.525098 25.360598 36.299741 15.969717 73.53683 29.842679 110.372783 44.603871 5.3918 2.159176 10.620895 4.669346 17.47807 7.696286-4.27435 3.790326-7.4159 6.713912-10.69969 9.442046-82.207303 68.341504-88.11485 214.601636-11.673877 289.585421 60.625776 59.458183 146.260132 52.40351 199.933565-14.947434 62.795185-78.785368 50.574862-216.471217-28.418236-276.78693-1.930979-1.477654-3.634784-3.27458-7.757684-7.03523 14.824637-6.074346 28.04473-11.961426 41.588187-16.972557 32.581046-12.034081 65.346287-23.623024 98.001011-35.470863C744.545822 197.623331 761.569544 170.909923 758.31236 134.517061z"  horiz-adv-x="1024" />

    
    <glyph glyph-name="fanhuidingbu" unicode="&#58935;" d="M76.8 416l422.4 422.4c6.4 6.4 19.2 6.4 25.6 0l422.4-422.4c6.4-6.4 12.8-6.4 19.2-6.4 6.4 0 12.8 0 19.2 6.4 12.8 12.8 12.8 25.6 0 38.4L556.8 876.8c-25.6 25.6-76.8 25.6-102.4 0L32 454.4C25.6 448 25.6 428.8 32 416S64 403.2 76.8 416zM32 224 140.8 224 140.8-121.6 192-121.6 192 224 300.8 224 300.8 262.4 32 262.4ZM499.2 268.8c-57.6 0-102.4-19.2-134.4-57.6-32-38.4-51.2-89.6-51.2-147.2 0-57.6 19.2-102.4 51.2-140.8C396.8-108.8 441.6-128 492.8-128c57.6 0 102.4 19.2 134.4 57.6s51.2 89.6 51.2 147.2c0 57.6-19.2 102.4-51.2 140.8C601.6 256 556.8 268.8 499.2 268.8zM595.2-44.8c-25.6-25.6-57.6-38.4-96-38.4-38.4 0-70.4 12.8-96 44.8-25.6 25.6-38.4 64-38.4 115.2 0 44.8 12.8 83.2 38.4 115.2 25.6 25.6 57.6 44.8 96 44.8 38.4 0 70.4-12.8 96-38.4 25.6-25.6 32-64 32-115.2C627.2 19.2 614.4-12.8 595.2-44.8zM960 236.8c-25.6 19.2-57.6 32-96 32l-108.8 0 0-384 51.2 0 0 147.2 51.2 0c38.4 0 76.8 12.8 102.4 32 25.6 25.6 38.4 51.2 38.4 89.6C998.4 185.6 985.6 217.6 960 236.8zM921.6 89.6c-12.8-12.8-38.4-19.2-70.4-19.2l-44.8 0 0 153.6 51.2 0c57.6 0 89.6-25.6 89.6-76.8C947.2 121.6 934.4 102.4 921.6 89.6z"  horiz-adv-x="1024" />

    
    <glyph glyph-name="weixin" unicode="&#58991;" d="M816.551274 647.832897C697.80273 764.499014 553.294498 798.33054 394.437467 755.47243 114.716718 680.005644 28.163433 389.01113 169.479973 199.353606c6.853082-9.198499 8.147564-26.164916 5.545296-38.09769-7.601118-34.868135-18.714224-68.958558-28.000728-103.474676-4.965082-18.455327-7.90504-37.21253 8.632611-52.019771 17.777899-15.921621 36.82572-12.654204 56.258305-2.777253 31.879058 16.200984 64.335261 31.314193 95.763041 48.336892 20.469194 11.086499 38.847773 11.658528 61.942771 5.240351 46.063105-12.799514 93.717452-19.872606 117.992321-24.74866 144.317896 2.603291 249.610988 41.736567 333.958024 129.489166C955.8826 301.033403 954.903296 511.909182 816.551274 647.832897zM763.498988 214.121961C658.864906 110.271732 531.49603 85.437114 393.782551 131.628132c-45.408189 15.229866-82.686211 19.207457-122.088616-7.493671-3.576455-2.423189-8.448416-2.934842-26.51284-8.852622 36.271088 62.917982 9.41851 102.273315-21.181415 146.894581-67.886133 98.989525-54.03773 226.624461 26.78197 318.740438 132.026966 150.480246 390.603139 150.382009 522.634198-0.196475C869.144096 471.544869 867.098507 316.945815 763.498988 214.121961zM640.32976 518.567835c-26.245757 0.961908-47.457872-18.594497-48.955992-45.13906-1.532913-27.1565 16.636912-48.230468 43.304272-50.227961 26.571169-1.989307 48.850591 16.263405 51.568493 42.247196C689.112814 492.85522 667.75846 517.560902 640.32976 518.567835zM385.221572 518.61286c-27.757181-0.205685-48.88743-23.684422-46.821375-52.023864 1.940189-26.610054 23.154349-44.910862 50.212612-43.317575 26.505677 1.560542 46.149063 22.886243 45.152363 49.02046C432.798147 497.654526 410.636405 518.801149 385.221572 518.61286z"  horiz-adv-x="1024" />

    
    <glyph glyph-name="qqfuben" unicode="&#58921;" d="M878.839923 406.442128c-29.743418 46.99943-42.632983 97.607038-50.350758 151.176095C800.417829 752.456746 608.344279 878.365364 422.355307 820.69899c-122.815163-38.07927-197.606567-123.735116-222.487234-250.495124-11.623735-59.217706-22.740934-116.999714-56.889685-169.790034-34.465976-53.279461-43.7402-115.842355-39.244816-179.300642 2.598174-36.664038 13.791098-70.054519 40.995693-97.232508 8.18338-8.17417 16.292058-21.673625 15.855106-32.385595C157.439752 14.265144 203.099674-26.55454 267.783883-49.100022c71.653947-24.974811 144.967696-23.877827 215.783555 5.913687 19.298532 8.120958 34.81083 11.057847 55.073316 1.221828 58.244542-28.272927 120.866788-28.719088 182.709275-17.476023 98.704023 17.943674 142.117788 71.040986 142.442176 169.583327 30.92329 22.388916 50.297546 53.78702 54.758138 93.076862C926.706093 275.026076 917.838122 344.819652 878.839923 406.442128zM838.798974 238.210589c-0.548492-18.203594-7.91425-36.201503-15.062044-66.660212-25.233708 21.372773-39.48734 33.44574-54.692646 46.325072-17.59882-26.982538-34.342156-52.651151-52.5304-80.537268 10.998495-6.033413 23.922852-10.174734 32.673144-18.636452 12.17632-11.773138 27.230178-25.605168 30.187533-40.685631 4.279467-21.827121-15.522532-34.543747-33.881668-42.757826-58.291614-26.081005-118.835526-28.999474-175.528736-0.451278-40.527019 20.407796-73.857125 21.776979-114.390283 0.441045-53.107545-27.950586-110.563118-24.686239-166.788677-4.916986-6.126534 2.15406-12.06785 5.220908-17.572214 8.691963-36.835953 23.222911-37.795814 52.718689-2.01796 76.576049 11.973706 7.984858 25.355481 13.856589 38.788421 21.067828-17.692964 27.946492-34.155914 53.952796-51.922557 82.016968-14.903431-12.717649-29.839609-25.463951-45.512566-38.838563-28.297486 21.744233-26.875091 48.762587-25.337061 74.009597 3.244904 53.263088 17.491373 103.337553 53.943586 144.310733 13.664208 15.358803 18.34788 31.764448 21.015639 52.398394 5.809309 44.936445 14.762215 89.923032 27.453259 133.423779 30.692023 105.216343 129.925095 174.186158 237.44183 168.359452 105.724926-5.728468 195.385992-82.576717 217.572294-187.953719 9.342786-44.37465 15.066137-89.524966 24.912389-133.771703 2.943029-13.225209 13.254885-25.369807 21.944801-36.657898C824.935222 347.925387 840.521199 295.457408 838.798974 238.210589z"  horiz-adv-x="1024" />

    
    <glyph glyph-name="praisepressed" unicode="&#58908;" d="M821.381279 640.280898L268.674159 640.280898c-76.3192 0-138.177036-61.856813-138.177036-138.177036l0-253.324566c0-76.3192 61.856813-138.177036 138.177036-138.177036l138.107451 0 0-92.78522c0.322341 0.092098 0.668219 0.069585 0.967024 0.161682 0-0.322341-0.184195-0.598634-0.184195-0.920976 0-19.091824 15.47546-34.543747 34.543747-34.543747 7.852852 0 14.716166 3.062755 20.519336 7.461949 0.11461-0.299829 0.322341-0.530073 0.437975-0.828878l173.4811 121.457236L821.381279 110.60430599999995c76.3192 0 138.177036 61.856813 138.177036 138.177036L959.558315 502.103862C959.558315 578.423061 897.700479 640.280898 821.381279 640.280898zM383.269104 384.254803l-63.444984 0 0 63.444984 63.444984 0L383.269104 384.254803zM575.667042 384.77055l-63.444984 0 0 63.444984 63.444984 0L575.667042 384.77055zM767.54821 384.77055l-63.444984 0 0 63.444984 63.444984 0L767.54821 384.77055z"  horiz-adv-x="1024" />

    
    <glyph glyph-name="eye-open" unicode="&#58883;" d="M892.6 387.2c0-73.5-157.3-230.2-381.5-230.2-218.5 0-381.5 154.1-381.5 230.2 0 76 163.7 229.9 381.5 229.9C737.1 617.1 892.7 463.2 892.6 387.2L892.6 387.2zM511.4 575.1c-101.5 0-183.9-84.2-183.9-188.1 0-103.9 82.3-188.1 183.9-188.1 101.6 0 183.9 84.2 183.9 188.1C695.3 490.9 613 575.1 511.4 575.1L511.4 575.1zM511.1 507.1c-64.7 0-117.1-53.6-117.1-119.7 0-66.1 52.4-119.8 117.1-119.8 64.7 0 117.1 53.6 117.1 119.8C628.2 453.5 575.8 507.1 511.1 507.1L511.1 507.1z"  horiz-adv-x="1024" />

    
    <glyph glyph-name="demo16" unicode="&#58964;" d="M1493.333 725.333h-1365.333c-47.36 0-85.333-38.101-85.333-85.077v-512.512c0-46.891 38.187-85.077 85.333-85.077h1365.333c47.36 0 85.333 38.101 85.333 85.077v512.512c0 46.891-38.187 85.077-85.333 85.077v0zM1493.333 170.795c0-23.637-19.285-42.795-42.368-42.795h-1280.597c-23.424 0-42.368 19.456-42.368 42.795v426.453c0 23.595 19.285 42.752 42.368 42.752h1280.597c23.424 0 42.368-19.456 42.368-42.795v-426.411zM713.089 285.952l-133.419-0.64 0.683 66.176h116.907c12.075 0 21.803 2.987 28.629 9.515 6.741 6.443 10.197 14.891 10.197 24.704 0 9.856-3.541 18.347-10.453 24.661-6.869 6.272-16.427 9.131-28.331 9.131l-117.675-0.256 0.981 53.931h127.659c12.288 0 22.144 2.944 29.184 9.344 7.083 6.443 10.667 15.147 10.667 25.259 0 10.027-3.584 18.603-10.667 25.045-7.040 6.4-16.896 9.344-29.184 9.344h-163.328c-10.155 0-18.816-1.536-25.984-4.821-7.936-3.627-13.909-9.557-17.621-17.451-3.371-7.211-4.949-15.957-4.949-26.283v-229.589c0-15.872 3.755-28.203 11.947-36.437 8.235-8.32 20.565-12.117 36.651-12.117h168.107c12.16 0 22.059 3.029 29.184 9.557 7.168 6.571 10.88 15.317 10.88 25.472 0 10.411-3.627 19.285-10.88 25.899-7.125 6.528-17.024 9.557-29.184 9.557v0zM366.806 536.021c-15.957 4.139-34.816 6.187-56.619 6.187h-80.64c-15.915 0-28.245-3.797-36.48-12.075-8.235-8.277-12.075-20.608-12.075-36.48v-223.957c0-10.752 0.981-19.712 2.987-26.965 2.475-8.832 7.936-15.872 15.957-20.651 7.637-4.565 17.877-6.613 30.891-6.613h80.64c14.549 0 27.733 0.939 39.509 2.859 12.117 1.963 23.467 5.376 34.091 10.197 10.709 4.907 20.565 11.392 29.568 19.456 11.349 10.453 20.608 22.229 27.861 35.413 7.168 13.099 12.459 27.733 15.872 43.861 3.371 15.915 5.035 33.365 5.035 52.395 0 58.453-17.067 102.827-51.456 132.267-13.44 11.733-28.544 19.797-45.141 24.107v0zM352.001 297.813c-3.712-3.243-7.936-5.675-12.928-7.467-5.461-1.92-10.624-3.115-15.573-3.584-5.461-0.512-13.184-0.768-23.168-0.768l-36.224-0.597v185.984l30.165 0.555c17.877 0 32.981-1.92 45.184-5.675 10.667-3.285 19.84-11.093 27.648-23.979 7.893-13.056 12.117-33.792 12.117-62.165 0.043-39.936-9.259-67.115-27.221-82.304v0zM1044.95 542.208h-19.157c-12.757 0-22.315-1.195-29.056-3.883-7.765-3.115-13.653-8.832-17.28-16.683-2.816-6.101-5.845-15.445-9.173-28.245l-33.579-130.133c0 0-0.768 2.901-1.152 4.352-11.136 41.941-33.365 125.781-33.365 125.781-3.328 12.757-6.357 22.059-9.173 28.203-3.627 7.851-9.515 13.568-17.28 16.683-6.741 2.688-16.299 3.883-29.056 3.883h-19.157c-13.781 0-25.173-2.816-34.048-8.789-10.368-6.955-15.147-19.285-15.147-35.84v-241.664c0-14.251 3.413-25.557 10.709-33.536 7.339-8.021 17.024-12.117 28.288-12.117 11.563 0 21.376 4.139 28.672 12.331 7.168 8.021 10.539 19.285 10.539 33.365l0.512 120.149v4.181l27.435-110.763c1.664-6.443 3.328-12.629 4.907-18.56 1.835-6.741 4.352-12.971 7.595-18.645 3.669-6.4 8.789-11.691 15.275-15.744 6.784-4.267 14.848-6.315 23.979-6.315 12.032 0 22.101 3.243 29.611 10.027 6.741 6.016 11.477 12.928 14.123 20.651 2.133 6.229 4.779 15.744 8.064 28.629l28.245 111.232c0 0-0.299-4.309-0.299-6.272v-118.613c0-14.080 3.413-25.387 10.667-33.408 7.339-8.107 16.939-12.245 28.117-12.245 11.691 0 21.589 4.139 28.885 12.331 7.168 8.021 10.539 19.285 10.539 33.365v241.664c0 16.555-4.779 28.885-15.147 35.84-8.917 5.973-20.309 8.789-34.091 8.789v0zM1368.235 526.763c-24.405 13.824-53.376 20.651-86.827 20.651-24.619 0-46.805-3.883-66.432-11.691-19.797-7.851-36.651-19.285-50.517-34.219-13.824-14.891-24.32-32.853-31.531-53.803-7.125-20.736-10.667-43.435-10.667-68.053 0-24.021 3.413-46.464 10.197-67.285 6.912-21.12 17.195-39.296 30.848-54.443 13.739-15.232 30.848-27.051 51.2-35.328 20.224-8.235 42.965-12.373 68.181-12.373 25.344 0 48 3.968 67.925 12.032 20.096 8.107 37.12 19.883 51.029 35.243 13.781 15.275 24.107 33.323 30.976 54.016 6.741 20.437 10.112 43.008 10.112 67.712 0 33.493-6.187 62.933-18.603 88.149-12.629 25.643-31.317 45.483-55.893 59.392v0zM1347.926 323.2c-6.997-14.72-16.128-25.301-27.477-32.085-11.605-6.912-24.277-10.368-38.187-10.368-10.923 0-20.779 2.005-29.739 5.973-8.875 3.925-16.768 9.899-23.765 17.963-6.997 8.064-12.459 18.389-16.427 31.104-4.053 12.971-6.059 27.563-6.059 43.904 0 16.171 2.048 30.635 6.059 43.349 3.968 12.544 9.259 22.613 15.872 30.379 6.528 7.68 14.251 13.483 23.296 17.493 9.088 4.053 19.029 6.059 29.952 6.059 15.403 0 28.8-3.669 40.491-10.965 11.52-7.211 20.437-17.963 26.837-32.469 6.571-14.933 9.941-32.853 9.941-53.803-0.043-22.741-3.669-41.557-10.795-56.533v0z"  horiz-adv-x="1622" />

    
    <glyph glyph-name="checkbox" unicode="&#59646;" d="M398.816 206.703c7.84-7.841 17.717-12.403 27.928-13.686 14.371-1.975 29.464 2.563 40.513 13.612l286.426 286.426c18.747 18.747 18.747 49.14 0.002 67.885-18.749 18.749-49.138 18.744-67.884-0.002L433.073 308.211l-95.129 95.128c-18.747 18.747-49.136 18.752-67.885 0.003-18.745-18.745-18.746-49.137 0.003-67.885L398.816 206.703zM896 832 128 832c-35.345 0-64-28.654-64-64l0-768c0-35.345 28.654-64 64-64l768 0c35.345 0 64 28.653 64 64L960 768C960 803.345 931.346 832 896 832zM896 0 128 0 128 768l768 0L896 0z"  horiz-adv-x="1024" />

    
    <glyph glyph-name="shouye" unicode="&#58951;" d="M23.085 361.216c12.16-12.095 32.705-12.545 45.185-0.065L509.934 802.815l441.534-441.534c12.545-12.545 33.15-12.225 45.31-0.065 12.545 12.545 12.225 33.025-0.06 45.312L555.243 848.065l0.255 0.255L510.254 893.568 23.085 406.401C10.285 393.601 10.67 373.761 23.085 361.216zM315.694 800c0 17.665-13.76 32-31.36 32L91.055 832c-8.51 0-16.32-3.647-22.015-9.345l-0.195 0.065c-5.63-5.567-9.15-13.375-9.15-22.08l0-193.28c0-17.28 14.85-31.36 32-31.36 17.665 0 32 13.76 32 31.36L123.695 768l160.64 0C301.614 768 315.694 782.848 315.694 800zM123.695 352.001l0-383.999c0-17.665 14.335-32 32-32l255.999 0c17.665 0 32 14.335 32 32L443.694 192.002l128 0 0-223.999c0-17.665 14.335-32 32-32l255.999 0c17.665 0 32 14.335 32 32L891.693 352.001c0 17.665-14.335 32-32 32-17.665 0-32-14.335-32-32l0-351.999-192 0L635.693 224.002c0 17.665-14.335 32-32 32l-192 0c-17.665 0-32-14.335-32-32l0-223.999-192 0L187.693 352.001c0 17.665-14.335 32-32 32S123.695 369.666 123.695 352.001z"  horiz-adv-x="1024" />

    
    <glyph glyph-name="tuichu" unicode="&#58909;" d="M295.32 653.698c-25.313-18-47.813-38.392-67.498-61.168-19.689-22.783-36.561-47.39-50.622-73.826-14.063-26.437-24.751-54.421-32.063-83.951-7.311-29.529-10.967-59.481-10.967-89.854 0-52.31 9.983-101.385 29.95-147.229 19.968-45.841 46.967-85.777 80.997-119.804 34.033-34.034 73.968-61.030 119.808-80.998 45.84-19.968 94.918-29.953 147.224-29.953 51.749 0 100.546 9.985 146.387 29.953 45.845 19.968 85.919 46.966 120.229 80.998 34.313 34.027 61.311 73.965 80.997 119.804 19.688 45.845 29.53 94.918 29.53 147.231 0 29.807-3.514 59.058-10.547 87.743s-17.014 55.966-29.949 81.842c-12.94 25.872-28.972 50.059-48.094 72.556-19.123 22.502-40.496 42.752-64.123 60.75-12.374 9-25.732 12.374-40.077 10.126-14.339-2.254-26.012-9.282-35.013-21.093-9.002-11.816-12.375-25.032-10.127-39.656 2.255-14.625 9.282-26.437 21.093-35.437 35.437-25.872 62.578-57.65 81.423-95.337 18.838-37.687 28.26-78.184 28.26-121.493 0-37.123-7.028-72.141-21.093-105.045-14.061-32.904-33.323-61.588-57.789-86.056-24.472-24.473-53.157-43.877-86.062-58.219s-67.916-21.512-105.045-21.512c-37.12 0-72.133 7.17-105.039 21.512s-61.595 33.746-86.061 58.219c-24.466 24.467-43.87 53.151-58.213 86.056-14.347 32.905-21.515 67.923-21.514 105.045 0 43.869 10.122 85.355 30.37 124.447 20.25 39.092 48.655 71.29 85.215 96.602 12.373 8.439 19.828 19.969 22.357 34.594 2.534 14.625-0.419 28.125-8.855 40.501-8.439 11.811-19.97 18.983-34.594 21.512-14.625 2.529-28.118-0.419-40.495-8.857v0zM512.15 342.366c14.627 0 27.142 5.203 37.548 15.607 10.406 10.407 15.609 22.923 15.609 37.549v320.611c0 14.624-5.203 27.282-15.609 37.967-10.406 10.688-22.92 16.029-37.548 16.029-15.184 0-27.98-5.343-38.386-16.029-10.406-10.687-15.609-23.342-15.609-37.967v-320.611c0-14.624 5.203-27.142 15.609-37.549 10.407-10.403 23.202-15.607 38.386-15.607v0z"  horiz-adv-x="1024" />

    
    <glyph glyph-name="ziliao1" unicode="&#58934;" d="M597.224522 481.179296c-27.083845 7.732102-55.642275 11.95938-85.226057 11.95938-29.584806 0-58.146305-4.227278-85.22708-11.95938V745.958752H199.067336v-131.615597l110.729917-196.44716c-65.750493-56.782238-107.432825-140.696416-107.432824-234.380099 0-171.001629 138.631384-309.624826 309.634036-309.624826 171.003676 0 309.648362 138.623197 309.648362 309.624826 0 101.216239-48.592718 191.080943-123.706463 247.567445l126.977973 180.257434V745.958752H597.224522V481.179296zM710.853465 183.515896c0-109.648282-89.231277-198.857047-198.855-198.857047-109.652376 0-198.85807 89.203648-198.85807 198.857047 0 109.654422 89.205695 198.863187 198.85807 198.863187 109.623723 0 198.855-89.208764 198.855-198.863187zM111.256408 894.109953v-89.84526h801.486161v89.84526H111.256408z m394.034285-525.154601l-39.748283-121.470539H337.993432c-3.03308 0-5.753027-1.982144-6.695492-4.868891s0.090051-6.073322 2.545986-7.841595l103.227036-75.202773-39.772842-122.135688a7.045463 7.045463 0 0 1 2.545986-7.863084 7.048533 7.048533 0 0 1 8.253987 0l103.876836 75.40027 103.670128-75.40027c1.24741-0.890276 2.706645-1.343601 4.139273-1.343601s2.88777 0.452301 4.116761 1.343601a7.037277 7.037277 0 0 1 2.568499 7.863084l-39.772842 122.135688 103.421464 75.202773a7.03216 7.03216 0 0 1 2.568498 7.841595 7.062859 7.062859 0 0 1-6.685259 4.868891H558.229392l-39.569204 121.44905a6.999414 6.999414 0 0 1-6.659676 4.868891 7.096628 7.096628 0 0 1-6.709819-4.847402z"  horiz-adv-x="1024" />

    
    <glyph glyph-name="demoon" unicode="&#58880;" d="M691.2 473.6c30.4 0 54.4-24 54.4-54.4s-24-54.4-54.4-54.4c-30.4 0-54.4 24-54.4 54.4s24 54.4 54.4 54.4zM332.8 473.6c28.8 0 52.8-24 52.8-54.4s-24-54.4-52.8-54.4c-28.8 0-52.8 24-52.8 54.4s24 54.4 52.8 54.4zM798.4 620.8c32 0 56-25.6 56-56v-358.4c0-32-25.6-56-56-56l-572.8-0c-32 0-56 25.6-56 56v356.8c0 32 25.6 56 56 56h572.8M798.4 652.8h-572.8c-49.6 0-88-40-88-88v-358.4c0-49.6 40-88 88-88h574.4c49.6 0 88 40 88 88v356.8c0 49.6-40 89.6-89.6 89.6v0zM838.4 710.4c57.6 0 105.6-48 105.6-105.6v-440c0-57.6-48-105.6-105.6-105.6l-652.8 0c-57.6 0-105.6 48-105.6 105.6v438.4c0 57.6 48 105.6 105.6 105.6h652.8M838.4 742.4h-652.8c-76.8 0-137.6-62.4-137.6-137.6v-440c0-76.8 62.4-137.6 137.6-137.6h654.4c76.8 0 137.6 62.4 137.6 137.6v438.4c0 76.8-62.4 139.2-139.2 139.2v0zM764.8 27.2c0-3.2 1.6-6.4 1.6-9.6 0-36.8-30.4-67.2-65.6-67.2s-65.6 30.4-65.6 67.2c0 3.2 0 6.4 1.6 9.6h-32c0-3.2 0-6.4 0-9.6 0-54.4 44.8-99.2 97.6-99.2s97.6 44.8 97.6 99.2c0 3.2 0 6.4 0 9.6h-35.2zM390.4 27.2c0-3.2 1.6-6.4 1.6-9.6 0-36.8-30.4-67.2-67.2-67.2s-67.2 30.4-67.2 67.2c0 3.2 0 6.4 1.6 9.6h-32c0-3.2 0-6.4 0-9.6 0-54.4 44.8-99.2 99.2-99.2 54.4 0 99.2 44.8 99.2 99.2 0 3.2 0 6.4 0 9.6h-35.2zM176 820.8l126.4-80h56l-168 105.6c-6.4 4.8-16 1.6-20.8-4.8-3.2-6.4-1.6-16 6.4-20.8zM721.6 742.4l131.2 80c6.4 4.8 9.6 12.8 4.8 20.8-4.8 6.4-12.8 9.6-20.8 4.8l-172.8-105.6h57.6z"  horiz-adv-x="1024" />

    
    <glyph glyph-name="coding" unicode="&#58907;" d="M396.699 320.37833333000003c0-14.475 9.773-26.211 21.827-26.211 12.057 0 21.827 11.737 21.827 26.211 0 14.475-9.773 26.211-21.827 26.211-12.057 0-21.827-11.737-21.827-26.211z m518.442 0c0-14.475 9.773-26.211 21.827-26.211 12.057 0 21.827 11.737 21.827 26.211 0 14.475-9.773 26.211-21.827 26.211-12.057 0-21.827-11.737-21.827-26.211z m336.085 168.362c-35.806 0-67.188-22.704-84.729-56.775-59.689 129.436-183.865 249.357-337.327 298.738-82.806 33.039-140.954 96.454-148.142 170.567-7.187-74.114-65.335-137.527-148.142-170.567-153.462-49.385-277.639-169.299-337.327-298.738-17.541 34.07-48.923 56.775-84.729 56.775-54.99 0-99.567-53.524-99.567-119.562 0-66.03 44.576-119.562 99.567-119.562 16.724 0 32.475 4.972 46.313 13.726 4.735-214.402 237.349-353.577 523.893-353.951 286.535 0.371 519.157 139.542 523.893 353.951 13.839-8.753 29.593-13.726 46.313-13.726 54.99 0 99.567 53.524 99.567 119.562-0.007 66.03-44.593 119.562-99.578 119.562zM156.086 331.81233333c-4.658-17.214-25.392-24.543-46.313-16.384s-34.105 28.731-29.444 45.945c4.658 17.214 25.392 24.543 46.313 16.384s34.105-28.737 29.444-45.945z m524.937-362.736c-229.82 0.356-415.935 108.67-415.935 263.725 0 3.247 0.119 6.465 0.274 9.678 0.053 1.056 0.108 2.114 0.18 3.171 0.142 2.191 0.339 4.37 0.558 6.549a191.86 191.86 0 0 0 1.062 8.719c0.042 0.287 0.076 0.575 0.119 0.858 4.626 30.474 16.471 76.976 34.358 103.783 42.977 62.164 119.634 103.578 207.083 103.578 67.324 0 128.206-24.588 172.301-64.238 44.094 39.651 104.974 64.238 172.301 64.238 87.453 0 164.108-41.42 207.083-103.578 17.889-26.801 29.734-73.307 34.358-103.783 0.042-0.287 0.076-0.575 0.119-0.858 0.429-2.892 0.771-5.804 1.062-8.719 0.215-2.179 0.411-4.352 0.558-6.549 0.071-1.056 0.125-2.114 0.18-3.171 0.157-3.211 0.274-6.43 0.274-9.678 0-155.051-186.117-263.359-415.935-263.725z m571.249 346.355c-20.921-8.16-41.658-0.831-46.313 16.384s8.527 37.781 29.444 45.945c20.921 8.16 41.658 0.831 46.313-16.384 4.658-17.214-8.527-37.781-29.444-45.945z"  horiz-adv-x="1362" />

    
    <glyph glyph-name="ziyuan" unicode="&#58938;" d="M1217.329-125.586c-8.536 0.101-16.294 3.347-22.189 8.629l-56.221 50.037c-57.455 50.009-133.052 80.495-215.768 80.495s-158.313-30.486-216.167-80.834l-56.011-49.865c-5.92-5.198-13.731-8.369-22.282-8.369s-16.362 3.171-22.32 8.402l-56.372 50.172c-57.455 50.009-133.052 80.495-215.768 80.495s-158.313-30.486-216.167-80.834l-61.652-52.122c-5.96-5.349-13.88-8.619-22.564-8.619-18.693 0-33.846 15.153-33.846 33.846 0 0.055 0 0.111 0 0.166l-0 682.553c-0 18.693 15.153 33.846 33.846 33.846s33.846-15.153 33.846-33.846v-605.844c69.338 60.296 160.543 97.050 260.332 97.050 99.789 0 190.994-36.753 260.817-97.462l35.054-30.613 35.538 31.026c69.338 60.296 160.543 97.050 260.332 97.050 99.789 0 190.994-36.753 260.817-97.462l-0.485 606.256c0 0 0 0 0 0 0 18.693 15.153 33.846 33.846 33.846 18.693 0 33.846-15.153 33.846-33.846 0-0 0-0 0-0v-680.305c-0-0-0-0-0-0 0-18.693-15.153-33.846-33.846-33.846zM625.588 84.26c-0.046-0-0.099-0-0.153-0-9.883 0-18.919 3.631-25.845 9.632l-43.386 37.753c-40.632 35.366-94.093 56.925-152.589 56.925s-111.958-21.559-152.871-57.165l-43.154-37.555c-6.98-6.345-16.295-10.229-26.518-10.229-21.808 0-39.487 17.679-39.487 39.487 0 0.225 0.002 0.449 0.006 0.673l-0 525.144c0.321 136.525 111.070 247.076 247.639 247.076 0 0 0-0 0.001-0l28.769 0c0 0 0 0 0.001 0 136.569 0 247.318-110.551 247.639-247.045l0-524.644c0-0.048 0-0.106 0-0.163 0-15.878-9.371-29.567-22.885-35.838-5.218-2.586-11.078-4.043-17.278-4.051zM403.332 268.156c1.022 0.012 2.228 0.019 3.437 0.019 66.949 0 128.963-21.129 179.739-57.082l-0.971 437.83c0 93.463-75.767 169.23-169.23 169.23 0 0 0 0 0 0l-27.077 0c-93.463 0-169.23-75.767-169.23-169.23v-438.87c50.284 36.331 113.17 58.11 181.141 58.11 0.77 0 1.54-0.003 2.309-0.008zM625.588 84.26c-0.142-0.002-0.309-0.003-0.477-0.003-5.752 0-11.212 1.248-16.125 3.487-13.514 6.273-22.885 19.962-22.885 35.84 0 0.057 0 0.115 0 0.172l-0 525.169c0.32 136.328 110.749 246.756 247.046 247.076l28.799 0c136.328-0.32 246.756-110.749 247.076-247.046l0-524.643c0.003-0.19 0.005-0.415 0.005-0.639 0-21.808-17.679-39.487-39.487-39.487-10.223 0-19.538 3.885-26.55 10.258l-43.403 37.766c-40.632 35.366-94.093 56.925-152.589 56.925s-111.958-21.559-152.871-57.165l-43.154-37.555c-6.851-6.199-15.941-10.035-25.926-10.165zM833.177 817.59c-0 0-0 0-0 0-93.463 0-169.23-75.767-169.23-169.23v-438.87c50.63 36.687 113.989 58.684 182.486 58.684s131.857-21.997 183.399-59.313l-0.913 440.063c0 93.463-75.767 169.23-169.23 169.23 0 0 0 0 0 0z"  horiz-adv-x="1251" />

    
    <glyph glyph-name="denglu" unicode="&#58892;" d="M159.207619 24.055873l-6.940444 6.810413v0.130031C63.032889 121.921016 7.996952 246.523937 7.996952 384 7.996952 662.349206 233.650794 888.003048 512 888.003048S1016.003048 662.349206 1016.003048 384c0-137.45981-55.035937-262.078984-144.270223-353.003683v-0.130031l-6.940444-6.810413c-90.908444-89.104254-215.430095-144.058921-352.792381-144.058921-137.346032 0-261.883937 54.938413-352.792381 144.058921z m-3.543365 75.369651a360.220444 360.220444 0 0 0 194.039873 270.01092 215.397587 215.397587 0 0 0-53.703111 142.563556c0 119.304127 96.711111 216.015238 215.998984 216.015238 119.304127 0 216.015238-96.711111 216.015238-216.015238 0-53.475556-19.586032-103.732825-53.719365-142.547302a360.220444 360.220444 0 0 0 194.039873-270.027174A454.070857 454.070857 0 0 1 968.005079 384c0 251.838984-204.149841 456.005079-456.005079 456.005079-251.838984 0-456.005079-204.149841-456.005079-456.005079a454.070857 454.070857 0 0 1 99.669333-284.574476zM512-72.005079c117.613714 0 228.10819 44.698413 311.978667 123.432635a312.092444 312.092444 0 0 1-200.687746 288.150349l-39.172064 14.953651L616.838095 380.749206a167.610921 167.610921 0 0 1 63.146667 131.267048c0 92.777651-75.223365 168.001016-168.001016 168.001016s-168.001016-75.223365-168.001016-168.001016c0-51.736381 23.503238-99.555556 63.146667-131.267048l32.735492-26.201396-39.172064-14.953651a312.092444 312.092444 0 0 1-200.687746-288.150349A454.265905 454.265905 0 0 1 512-72.005079z"  horiz-adv-x="1024" />

    
    <glyph glyph-name="yanjing" unicode="&#58889;" d="M511.948 647.192C218.807 647.192 63.383 369.2 63.383 369.2s167.818-247.09 448.565-247.09c280.768 0 448.604 247.09 448.604 247.09S822.67 647.192 511.948 647.192z m0.276-420.713c-89.385 0-161.85 70.712-161.85 157.925 0 87.213 72.465 157.925 161.85 157.925 89.384 0 161.849-70.712 161.849-157.925 0-87.213-72.466-157.925-161.85-157.925z m-0.256 222.322c-39.135 0-70.858-31.468-70.858-70.274 0-38.805 31.723-70.273 70.858-70.273s70.858 31.468 70.858 70.273c0 38.806-31.724 70.274-70.858 70.274z"  horiz-adv-x="1024" />

    
    <glyph glyph-name="hezuoguanxi" unicode="&#59561;" d="M127.2 640c0 70.4 57.6 128 128 128s128-57.6 128-128-57.6-128-128-128-128 57.6-128 128z m641.6-128c70.4 0 128 57.6 128 128s-57.6 128-128 128-128-57.6-128-128 56.8-128 128-128z m0-64c-70.4 0-128-57.6-128-128v-51.2L512 194.4l-128 74.4V320c0 70.4-57.6 128-128 128s-128-57.6-128-128v-288c0-17.6 14.4-32 32-32h192c17.6 0 32 14.4 32 32V194.4l110.4-64c0.8 0 0.8-0.8 1.6-0.8 9.6-5.6 21.6-6.4 32 0l112.8 65.6V32c0-17.6 14.4-32 32-32h192c17.6 0 32 14.4 32 32V320c0 70.4-57.6 128-128 128z"  horiz-adv-x="1024" />

    
    <glyph glyph-name="lianxi" unicode="&#58881;" d="M8.244 323.655c0 334.584 245.846 555.9 535.54 555.9 257.631 0 421.196-174.265 421.196-423.318 0-219.156-144.326-330.335-267.249-330.335-68.416 0-124.007 32.066-135.751 91.942h-2.161c-35.273-48.093-96.195-81.239-146.453-81.239-91.942 0-156.069 68.416-156.069 179.595 0 142.161 102.604 292.901 241.601 292.901 40.637 0 72.703-18.196 92.984-59.879h2.161l17.078 50.258h97.309l-52.381-260.835c-19.277-78.071 0-114.387 57.714-114.387 73.784 0 149.655 87.654 149.655 226.608 0 180.679-99.436 331.377-332.457 331.377-209.534 0-415.824-178.514-415.824-454.3 0-238.39 162.483-358.109 357.029-358.109 65.209 0 135.748 20.284 187.090 49.178l35.27-87.654c-72.665-40.637-149.655-58.794-235.186-58.794-241.562-0.001-451.096 148.574-451.096 451.093zM535.247 295.879l30.981 171.020c-16.031 26.732-36.312 39.595-63.083 39.595-77.998 0-127.21-103.723-127.21-181.76 0-59.84 28.893-88.696 70.577-88.696 27.776 0 54.546 17.078 88.735 59.84z"  horiz-adv-x="1024" />

    
    <glyph glyph-name="checkbox1" unicode="&#58962;" d="M386.963 95.583c-10.017 0-20.034 3.81-27.626 11.457l-264.437 264.381c-15.294 15.323-15.294 39.958 0 55.281 15.238 15.21 39.985 15.21 55.195 0l236.897-236.84 489.311 489.284c15.182 15.323 39.958 15.323 55.168 0 15.294-15.266 15.294-39.957 0-55.223l-516.882-516.939c-7.647-7.591-17.608-11.4-27.626-11.4zM386.963 95.583z"  horiz-adv-x="1024" />

    
    <glyph glyph-name="emo_deyi" unicode="&#59049;" d="M936.904 386.3c0-235.314-190.747-426.114-426.116-426.114-235.313 0-426.114 190.8-426.114 426.114 0 235.37 190.802 426.172 426.114 426.172 235.369 0 426.116-190.802 426.116-426.172zM510.788-57.391c-118.502 0-229.919 46.157-313.728 129.964C113.254 156.381 67.098 267.797 67.098 386.3c0 118.527 46.155 229.962 129.962 313.777 83.805 83.813 195.223 129.97 313.728 129.97 118.527 0 229.952-46.158 313.751-129.971C908.332 616.267 954.48 504.833 954.48 386.3c0-118.508-46.148-229.926-129.941-313.727-83.802-83.806-195.227-129.964-313.751-129.964z m0 852.287c-225.27 0-408.539-183.296-408.539-408.597 0-225.27 183.269-408.538 408.539-408.538 225.27 0 408.54 183.269 408.54 408.538 0 225.302-183.27 408.597-408.54 408.597zM404.432 712.322c18.679-17.679-14.103-82.5-73.173-144.746-59.044-62.304-122.09-98.29-140.771-80.555-18.681 17.737 14.046 82.528 73.146 144.748 59.041 62.217 122.089 98.318 140.798 80.553zM224.634 470.784c-1.796 0-3.621 0.378-5.36 1.174l-118.513 54.293c-4.73 2.167-7.521 6.837-7.523 11.72 0 1.798 0.376 3.623 1.174 5.364 2.964 6.471 10.611 9.313 17.084 6.349l118.515-54.293c4.729-2.167 7.521-6.837 7.523-11.72a12.84 12.84 0 0 0-1.175-5.364c-2.168-4.731-6.841-7.523-11.725-7.523zM808.526 463.694a12.862 12.862 0 0 0-10.057 4.82 12.846 12.846 0 0 0-2.839 8.061 12.86 12.86 0 0 0 4.821 10.056l108.474 87.076c5.548 4.455 13.661 3.569 18.117-1.982a12.834 12.834 0 0 0 2.838-8.061c0-3.772-1.651-7.51-4.821-10.056l-108.472-87.076a12.834 12.834 0 0 0-8.061-2.838zM836.297 471.946c0-80.239-65.079-145.26-145.347-145.26-80.212 0-145.263 65.021-145.263 145.26 0 80.297 65.051 145.348 145.263 145.348 80.268-0.001 145.347-65.051 145.347-145.348zM690.95 313.799c-87.204 0-158.15 70.944-158.15 158.147 0 87.251 70.946 158.235 158.15 158.235 87.249 0 158.233-70.983 158.233-158.235 0.001-87.203-70.984-158.147-158.233-158.147z m0 290.606c-72.992 0-132.375-59.42-132.375-132.459 0-72.991 59.383-132.374 132.375-132.374 73.035 0 132.458 59.383 132.458 132.374 0 73.039-59.423 132.459-132.458 132.459zM725.734 592.178l-145.605-188.4s15.677-31.438 51.377-47.171l154.187 199.87c-0.001 0-32.84 45.684-59.959 35.701zM805.66 532.22L690.033 342.39s17.137 1.432 41.422 5.692l89.909 138.482s-2.889 34.242-15.704 45.656zM476.089 471.946c0-80.239-65.049-145.26-145.318-145.26-80.24 0-145.29 65.021-145.29 145.26 0 80.297 65.049 145.348 145.29 145.348 80.269-0.001 145.318-65.051 145.318-145.348zM330.771 313.799c-87.218 0-158.177 70.944-158.177 158.147 0 87.251 70.959 158.235 158.177 158.235 87.234 0 158.205-70.983 158.205-158.235 0-87.203-70.971-158.147-158.205-158.147z m0 290.606c-73.007 0-132.402-59.42-132.402-132.459 0-72.991 59.395-132.374 132.402-132.374 73.021 0 132.43 59.383 132.43 132.374 0 73.039-59.409 132.459-132.43 132.459zM365.527 592.178l-145.604-188.4s15.734-31.438 51.376-47.171l154.158 199.87s-32.812 45.684-59.93 35.701zM445.452 532.22L329.827 342.39s17.164 1.432 41.421 5.692l89.88 138.482s-2.86 34.242-15.676 45.656zM540.797 468.385h-55.468c-7.117 0-12.887 5.77-12.887 12.888 0 7.117 5.77 12.887 12.887 12.887h55.468c7.117 0 12.887-5.77 12.887-12.887 0-7.118-5.77-12.888-12.887-12.888zM495.962 21.154c-13.559 0-28.05 4.373-41.448 17.358a7.324 7.324 0 0 0 10.195 10.518c18.639-18.067 41.346-17.739 73.63 1.068 3.487 2.036 7.979 0.855 10.014-2.641a7.323 7.323 0 0 0-2.642-10.015c-8.577-4.996-27.961-16.288-49.749-16.288zM680.997 184.826a7.326 7.326 0 0 0-7.018 9.431c2.645 8.81 6.418 17.893 12.23 29.449a7.323 7.323 0 0 0 13.084-6.583c-5.415-10.764-8.896-19.114-11.285-27.076a7.327 7.327 0 0 0-7.011-5.221zM742.238 194.237c-0.878 0-1.771 0.16-2.639 0.496a7.324 7.324 0 0 0-4.19 9.471c0.624 1.613 1.256 3.225 1.887 4.834 3.892 9.93 7.566 19.309 9.513 29.283 0.771 3.969 4.621 6.565 8.587 5.787a7.32 7.32 0 0 0 5.787-8.588c-2.197-11.281-6.292-21.728-10.251-31.827-0.622-1.589-1.245-3.179-1.861-4.771a7.33 7.33 0 0 0-6.833-4.685zM808.141 215.434a7.324 7.324 0 0 0-6.625 10.434c1.467 3.131 3.164 5.994 4.806 8.763 3.095 5.227 5.77 9.742 6.299 14.782a7.316 7.316 0 0 0 8.048 6.518 7.32 7.32 0 0 0 6.516-8.049c-0.86-8.221-4.792-14.856-8.262-20.714-1.531-2.584-2.977-5.026-4.146-7.518a7.326 7.326 0 0 0-6.636-4.216zM179.353 248.389a7.326 7.326 0 0 0-7.123 5.648c-0.314 1.339-0.641 2.677-0.966 4.016-2.009 8.249-4.083 16.78-3.947 26.061 0.061 4.044 3.393 7.307 7.43 7.215a7.324 7.324 0 0 0 7.215-7.431c-0.108-7.415 1.66-14.685 3.533-22.381 0.334-1.378 0.67-2.752 0.993-4.125a7.324 7.324 0 0 0-7.135-9.003zM224.09 224.819a7.323 7.323 0 0 0-7.251 6.367c-0.183 1.38-0.372 2.766-0.562 4.155-1.345 9.825-2.738 19.985-1.818 30.453 0.354 4.029 3.917 6.999 7.936 6.654a7.324 7.324 0 0 0 6.655-7.936c-0.776-8.83 0.502-18.161 1.737-27.187 0.193-1.412 0.386-2.821 0.572-4.226a7.322 7.322 0 0 0-7.269-8.28zM297.097 201.275a7.325 7.325 0 0 0-7.07 5.436c-1.909 7.146-5.002 14.429-7.994 21.476-1.187 2.793-2.368 5.574-3.482 8.35a7.321 7.321 0 0 0 4.065 9.524 7.328 7.328 0 0 0 9.525-4.065c1.08-2.687 2.224-5.379 3.372-8.085 3.191-7.511 6.491-15.278 8.665-23.422a7.326 7.326 0 0 0-7.081-9.214zM282.154 681.383a12.885 12.885 0 0 0-11.133 6.375c-3.596 6.141-1.535 14.038 4.607 17.634 19.987 11.706 40.876 11.064 61.083 10.442 1.769-0.054 3.543-0.108 5.324-0.156 7.114-0.184 12.733-6.102 12.548-13.217-0.185-7.115-6.134-12.743-13.218-12.548a961.456 961.456 0 0 0-5.445 0.159c-18.07 0.555-33.679 1.035-47.264-6.921a12.853 12.853 0 0 0-6.502-1.768zM750.204 672.887a12.891 12.891 0 0 0-11.385 6.825c-8.593 16.117-23.556 23.054-41.061 19.021-6.939-1.598-13.853 2.733-15.45 9.668-1.597 6.936 2.732 13.853 9.668 15.45 28.858 6.645 55.514-5.625 69.587-32.012 3.35-6.279 0.972-14.085-5.309-17.435a12.827 12.827 0 0 0-6.05-1.517zM478.808 221.987c-43.396 3.774-90.595 38.417-134.305 31.582-52.521-8.355-74.834-84.417-50.892-127.554 62.505-112.509 215.718-123.664 308.03-99.979 66.28 16.935 153.558 90.396 98.634 167.316-33.928 47.485-137.396 28.634-189.829 28.634l-31.638 0.001M516.459 2.893c-50.87 0-175.516 11.388-234.114 116.863-15.109 27.223-14.828 66.932 0.698 98.813 13.03 26.756 34.136 43.706 59.435 47.729a89.642 89.642 0 0 0 13.824 1.051c23.922 0 47.585-8.85 70.47-17.407 18.593-6.954 36.168-13.525 52.615-15.064h31.058c10.217 0 22.888 0.769 36.305 1.585 16.254 0.987 34.678 2.106 52.85 2.106 36.15 0 87.004-3.908 111.162-37.723 20.165-28.239 24.983-59.144 13.94-89.374-17.804-48.729-73.778-86.146-119.87-97.921-27.17-6.972-57.733-10.658-88.373-10.658zM356.302 241.57c-3.387 0-6.686-0.248-9.809-0.736-22.57-3.59-34.923-22.561-40.273-33.551-11.826-24.282-12.376-55.128-1.339-75.015 51.946-93.504 165.268-103.601 211.578-103.601 28.511 0 56.858 3.408 81.978 9.854 38.594 9.861 87.47 41.876 102.052 81.795 8.108 22.191 4.507 44.244-10.704 65.548-13.124 18.368-41.782 26.927-90.185 26.927-17.388 0-35.397-1.095-51.286-2.061-13.817-0.838-26.869-1.633-37.868-1.633h-31.638c-0.374 0-0.746 0.017-1.117 0.051-20.104 1.747-40.36 9.322-59.948 16.647-21.693 8.113-42.181 15.775-61.441 15.775zM409.382 134.421a7.275 7.275 0 0 0-2.182 0.336c-14.414 4.493-28.623 8.65-39.391 11.771a7.324 7.324 0 0 0 4.075 14.068c10.835-3.141 25.136-7.324 39.676-11.858a7.321 7.321 0 0 0 4.811-9.171 7.327 7.327 0 0 0-6.989-5.146zM518.024 112.169a7.322 7.322 0 0 0-0.05 14.644l4.439 0.028c18.514 0.108 36 0.211 53.31 3.877a7.32 7.32 0 0 0 8.682-5.646 7.324 7.324 0 0 0-5.647-8.683c-18.767-3.975-36.978-4.08-56.259-4.193l-4.422-0.027h-0.053z"  horiz-adv-x="1024" />

    
    <glyph glyph-name="aixin" unicode="&#58885;" d="M508.587 138.24l-20.48 17.067c-20.48 20.48-215.04 197.973-242.347 262.826-13.653 37.547-13.653 78.507 3.413 116.054 17.067 37.546 47.787 64.853 85.334 78.506 61.44 30.72 129.706 10.24 177.493-47.786 30.72 30.72 71.68 61.44 122.88 61.44 17.067 0 34.133-3.414 51.2-10.24 78.507-30.72 116.053-119.467 88.747-194.56-27.307-68.267-218.454-245.76-238.934-266.24l-27.306-17.067z"  horiz-adv-x="1024" />

    
    <glyph glyph-name="emoji" unicode="&#59126;" d="M512 64c-176.448 0-320 143.552-320 320S335.552 704 512 704s320-143.552 320-320-143.552-320-320-320m0 704C300.256 768 128 595.744 128 384s172.256-384 384-384 384 172.256 384 384S723.744 768 512 768M700.64 315.712a32 32 0 0 1-43.712-11.68A160.608 160.608 0 0 0 518.304 224a160.576 160.576 0 0 0-138.592 80 32 32 0 0 1-55.424-32.032 224.896 224.896 0 0 1 194.016-112 224.768 224.768 0 0 1 194.016 112 32 32 0 0 1-11.68 43.744M384 384a32 32 0 0 1 32 32v96a32 32 0 0 1-64 0v-96a32 32 0 0 1 32-32M640 384a32 32 0 0 1 32 32v96a32 32 0 0 1-64 0v-96a32 32 0 0 1 32-32"  horiz-adv-x="1024" />

    
    <glyph glyph-name="homepage" unicode="&#59138;" d="M768 105.44l-128 0.032v118.944a128.224 128.224 0 0 1-128 128.192c-70.592 0-128-57.504-128-128.192v-118.88l-128 0.032V531.008l255.68 167.52L768 530.624v-425.184z m-192 0.032l-128 0.032v118.912c0 35.392 28.704 64.192 64 64.192s64-28.8 64-64.192v-118.944z m304.896 427.68L800 586.144V688.832a32 32 0 1 1-64 0v-60.768l-206.464 135.296A31.296 31.296 0 0 1 511.424 768a31.168 31.168 0 0 1-17.6-4.64l-351.36-230.208a32 32 0 0 1 35.072-53.536L192 489.088v-393.056c0-30.08 27.2-54.592 60.576-54.592h518.848c33.408 0 60.576 24.512 60.576 54.592v392.64l13.856-9.056a31.968 31.968 0 0 1 35.04 53.536z"  horiz-adv-x="1024" />

    
    <glyph glyph-name="manage" unicode="&#59147;" d="M224 472.16V664.256l192 0.096 0.096-192.096L224 472.16z m192.096 256.096H223.904A64 64 0 0 1 160 664.32v-192.192a64 64 0 0 1 63.904-63.904h192.192A64 64 0 0 1 480 472.16V664.32a64 64 0 0 1-63.904 63.904zM224 88.16v192.096l192 0.096 0.096-192.096L224 88.16z m192.096 256.096H223.904A64 64 0 0 1 160 280.32v-192.192a64 64 0 0 1 63.904-63.904h192.192A64 64 0 0 1 480 88.16V280.32a64 64 0 0 1-63.904 63.904zM704.064 432.384l-135.84 135.84 135.712 135.84 135.904-135.744-135.776-135.936z m181.024 181.024l-135.904 135.904a64 64 0 0 1-90.368 0L522.912 613.44a63.456 63.456 0 0 1-18.656-45.056 63.456 63.456 0 0 1 18.656-45.312l135.904-135.936a63.904 63.904 0 0 1 90.368 0.032l135.904 135.904a63.936 63.936 0 0 1 0 90.368zM608 88.16v192.096l192 0.096 0.096-192.096-192.096-0.096z m192.096 256.096h-192.192A64 64 0 0 1 544 280.32v-192.192a64 64 0 0 1 63.904-63.904h192.192A64 64 0 0 1 864 88.16V280.32a64 64 0 0 1-63.904 63.904z"  horiz-adv-x="1024" />

    
    <glyph glyph-name="xiugaimima" unicode="&#59052;" d="M622.526 579.625c0.05 29.959-11.636 58.087-32.781 79.23-21.145 21.146-49.272 32.831-79.23 32.782-29.958 0.049-58.085-11.638-79.231-32.782-21.144-21.145-32.83-49.271-32.781-79.23-0.05-29.959 11.638-58.085 32.783-79.23 21.144-21.144 49.271-32.831 79.229-32.781 29.958-0.05 58.084 11.638 79.229 32.781 21.145 21.145 32.832 49.271 32.782 79.23zM512 896C229.23 896 0 666.77 0 384s229.23-512 512-512 512 229.23 512 512S794.77 896 512 896z m180.695-771.899H577.712v-114.984c0-37.139-30.107-67.246-67.247-67.247-37.14 0.001-67.246 30.108-67.247 67.246l0.05 333.314c-39.169 11.042-76.209 32.038-107.061 62.888-96.265 96.265-96.264 252.35 0.001 348.614 96.264 96.266 252.348 96.266 348.613 0 96.265-96.265 96.264-252.35-0.001-348.614-30.85-30.849-67.89-51.845-107.059-62.888l-0.001-83.886h114.983c18.521 0 35.355-7.527 47.537-19.708 12.183-12.183 19.661-28.97 19.709-47.539-0.047-37.088-30.155-67.197-67.294-67.196z"  horiz-adv-x="1024" />

    
    <glyph glyph-name="zhuce" unicode="&#58903;" d="M563.7 93l290.2 290.2c15 15 34.8 23.2 56 23.2 21.2 0 41-8.2 56-23.2l26.4-26.4c30.9-30.9 30.9-81.1 0-112L702-45.4 480.2-128l83.5 221z m-3.6-141.2l116.4 43.4 3.1 3.1-72.6 72.6-3.2-3.2-43.7-115.9z m152.4 79.4l190.7 190.7-72.6 72.6-190.7-190.7 72.6-72.6zM936 254.8l23.4 23.4c12.7 12.8 12.7 33.5 0 46.2l-26.3 26.4c-6.2 6.2-14.4 9.5-23.1 9.5-8.7 0-17-3.4-23.1-9.5l-23.4-23.5 72.5-72.5zM1015.4-99.5c-0.1 1.9-0.3 3.9-1 6.9l-1.4 10.5c-11.1 81.4-38.5 157.1-78.9 222.9l-41.5-40.3a513.7 513.7 0 0 0 64.9-184.7l1.1-7.1 1.2-0.1v-8.7c0-15.3 12.5-27.8 27.9-27.8 15.2 0 27.5 12.2 27.8 28.1l-0.1 0.3zM746.1 323c-10.6 5.9-21.3 11.6-32.3 16.8l-12.1 5.7 10.2 8.7c68.6 58.8 107.9 144 107.9 233.8 0 169.8-138.2 308-308 308-169.9 0-308-138.2-308-308 0-89.8 39.3-175 107.9-233.8l10.2-8.7-12.1-5.7C148.1 263.8 36.2 106 10.4-82.1l-1.8-13.2v-4.8c0-15.3 12.5-27.8 27.8-27.8 15.4 0 27.9 12.5 27.9 27.8l-0.4 3.3 1.9 12.6C93 98.9 215.7 252.9 378.5 307.9l3.3 1.1 3.1-1.4c40.3-18.3 82.9-27.6 126.8-27.6 43.8 0 86.5 9.3 126.8 27.6l3.1 1.4 3.3-1.1c21.9-7.4 42.9-16.7 63.2-27.5l38 42.6z m-112.2 43.7c-21.5-11.9-44.6-20.6-68.7-25.9-17.9-3.9-35.9-5.8-53.5-5.8-17.7 0-35.6 1.9-53.5 5.8-24.1 5.2-47.2 13.9-68.7 25.9-80.7 44.7-130.7 129.5-130.7 221.3 0 139.5 113.5 252.9 252.9 252.9S764.6 727.4 764.6 588c0-91.8-50.1-176.6-130.7-221.3z"  horiz-adv-x="1024" />

    
    <glyph glyph-name="gerenzhongxinhui" unicode="&#58901;" d="M503.808 837.12c118.272 0 214.528-96.256 214.528-214.528s-96.256-214.528-214.528-214.528-215.04 95.744-215.04 214.528 96.768 214.528 215.04 214.528m0 52.224c-147.456 0-266.752-119.296-266.752-266.752s119.296-266.752 266.752-266.752 266.752 119.296 266.752 266.752c0 146.944-119.296 266.752-266.752 266.752zM613.888 262.656c81.92 0 159.232-32.256 217.6-90.624 58.368-58.368 90.624-135.68 90.624-217.6v-22.016H101.888v22.016c0 81.92 32.256 159.232 90.624 217.6C250.88 230.4 328.192 262.656 410.112 262.656h203.776m0 49.664H410.112c-197.12 0-358.4-161.28-358.4-358.4v-60.416c0-4.096 0.512-7.68 0.512-11.776h919.04c0 4.096 0.512 7.68 0.512 11.776V-46.08c0.512 197.12-160.768 358.4-357.888 358.4zM422.912 622.592h-5.12c-11.776 0-21.504 9.728-21.504 21.504v39.424c0 11.776 9.728 21.504 21.504 21.504h5.12c11.776 0 21.504-9.728 21.504-21.504v-39.424c0.512-11.776-9.216-21.504-21.504-21.504zM589.312 622.592h-5.12c-11.776 0-21.504 9.728-21.504 21.504v39.424c0 11.776 9.728 21.504 21.504 21.504h5.12c11.776 0 21.504-9.728 21.504-21.504v-39.424c0.512-11.776-9.216-21.504-21.504-21.504z"  horiz-adv-x="1024" />

    
    <glyph glyph-name="check-box" unicode="&#60075;" d="M810.666667 768H213.333333a85.333333 85.333333 0 0 1-85.333333-85.333333v-597.333334a85.333333 85.333333 0 0 1 85.333333-85.333333h597.333334a85.333333 85.333333 0 0 1 85.333333 85.333333V682.666667a85.333333 85.333333 0 0 1-85.333333 85.333333z m-384-597.333333l-213.333334 213.333333 60.16 60.16L426.666667 291.413333l323.84 323.84L810.666667 554.666667l-384-384z"  horiz-adv-x="1024" />

    
    <glyph glyph-name="checkbox-copy" unicode="&#60076;" d="M398.816 206.70299999999997c7.84-7.841 17.717-12.403 27.928-13.686 14.371-1.975 29.464 2.563 40.513 13.612l286.426 286.426c18.747 18.747 18.747 49.14 0.002 67.885-18.749 18.749-49.138 18.744-67.884-0.002L433.073 308.211l-95.129 95.128c-18.747 18.747-49.136 18.752-67.885 0.003-18.745-18.745-18.746-49.137 0.003-67.885L398.816 206.70299999999997zM896 832L128 832c-35.345 0-64-28.654-64-64l0-768c0-35.345 28.654-64 64-64l768 0c35.345 0 64 28.653 64 64L960 768C960 803.345 931.346 832 896 832zM896 0L128 0 128 768l768 0L896 0z"  horiz-adv-x="1024" />

    


  </font>
</defs>
</svg>
